<svg xmlns="http://www.w3.org/2000/svg" viewBox="170 300 680 160">
    <g
        style="font-style:normal;font-weight:400;font-size:72px;line-height:1;font-family:&quot;Brandmark Sans 2 Color&quot;;font-variant-ligatures:normal;text-align:center;text-anchor:middle">
        <path fill="#66cbc4"
            d="M273.394 368.756c0 20.54-12.097 30.495-33.267 30.495h-16.255v28.857h-19.785V339.9h36.04c21.17 0 33.267 9.45 33.267 28.856zm-18.524.756c0-9.702-5.67-13.357-15.876-13.357h-15.248v26.967h15.248c10.08 0 15.876-3.78 15.876-13.61z"
            aria-label="P" class="c1" />
        <g aria-label="^L">
            <path fill="#66cbc4"
                d="M305.694 399.251c-1.763 3.907-4.915 8.947-10.459 12.98-3.276 2.268-6.552 3.654-9.45 4.536V339.9h19.783v59.478l.126-.127z"
                class="c1" />
            <path fill="#6f9995"
                d="M341.607 410.719v17.262H295.74c2.52-1.764 5.166-3.907 7.687-6.803 3.276-3.78 5.292-7.56 6.552-10.46h31.628z"
                class="c3" />
        </g>
        <path fill="#66cbc4"
            d="M403.597 339.9h-20.918l-35.787 88.207h20.161l11.844-32.131 13.61-35.172 25.076 67.303h21.044z"
            aria-label="A" class="c1" />
        <path fill="#66cbc4"
            d="m465.974 339.9 58.848 88.208h-20.288l-37.802-57.462v57.462h-18.4V339.9h17.642zm58.848 0v68.171c-12.35-7.56-17.263-22.051-18.271-25.58V339.9h18.27zM559.736 339.9l58.847 88.208h-20.287l-37.803-57.462v57.462h-18.399V339.9h17.642zm58.847 0v68.171c-12.349-7.56-17.262-22.051-18.27-25.58V339.9h18.27z"
            aria-label="N" class="c1" />
        <path fill="#66cbc4" d="M635.982 428.108V339.9h19.785v88.208h-19.785z" aria-label="I" class="c1" />
        <path fill="#66cbc4"
            d="M734.379 339.9v16.13h-41.332v72.078h-19.785V339.9h61.117zm-26.841 38.812H731.1v16.13H705.27l2.268-16.13z"
            aria-label="F" class="c1" />
        <path fill="#66cbc4"
            d="m758.804 339.9 30.873 59.855v28.353h-19.656v-27.722L739.273 339.9h19.531zm61.115 0-23.059 45.616s-10.963-1.639-10.837-17.39L800.39 339.9h19.53z"
            aria-label="Y" class="c1" />
    </g>
</svg>